<svg xmlns="http://www.w3.org/2000/svg" version="1.1" xmlns:xlink="http://www.w3.org/1999/xlink" xmlns:svgjs="http://svgjs.com/svgjs" width="1440" height="700" preserveAspectRatio="none" viewBox="0 0 1440 700"><g mask="url(&quot;#SvgjsMask1035&quot;)" fill="none"><rect width="1440" height="700" x="0" y="0" fill="rgba(30, 0, 42, 1)"></rect><path d="M4 700L704 0L1056.5 0L356.5 700z" fill="url(#SvgjsLinearGradient1036)"></path><path d="M535.2 700L1235.2 0L1425.7 0L725.7 700z" fill="url(#SvgjsLinearGradient1036)"></path><path d="M1415 700L715 0L47.5 0L747.5 700z" fill="url(#SvgjsLinearGradient1037)"></path><path d="M907.8 700L207.79999999999995 0L104.29999999999995 0L804.3 700z" fill="url(#SvgjsLinearGradient1037)"></path><path d="M742.5305395893287 700L1440 2.5305395893286686L1440 700z" fill="url(#SvgjsLinearGradient1036)"></path><path d="M0 700L697.4694604106713 700L 0 2.5305395893286686z" fill="url(#SvgjsLinearGradient1037)"></path></g><defs><mask id="SvgjsMask1035"><rect width="1440" height="700" fill="#ffffff"></rect></mask><linearGradient x1="0%" y1="100%" x2="100%" y2="0%" id="SvgjsLinearGradient1036"><stop stop-color="rgba(143, 0, 255, 1)" offset="0"></stop><stop stop-opacity="0" stop-color="rgba(143, 0, 255, 1)" offset="0.66"></stop></linearGradient><linearGradient x1="100%" y1="100%" x2="0%" y2="0%" id="SvgjsLinearGradient1037"><stop stop-color="rgba(143, 0, 255, 1)" offset="0"></stop><stop stop-opacity="0" stop-color="rgba(143, 0, 255, 1)" offset="0.66"></stop></linearGradient></defs></svg>