<svg xmlns="http://www.w3.org/2000/svg" version="1.1" xmlns:xlink="http://www.w3.org/1999/xlink" xmlns:svgjs="http://svgjs.dev/svgjs" width="100%" height="100%" viewBox="0 0 1000 600"><rect width="100" height="50" x="0" y="0" fill="#8f00ff"/><g><rect width="100" height="100" rx="13.333333333333334" ry="13.333333333333334" y="350.7575105521041" fill="#ffffff" transform="matrix(0.38047652647183045,0,0,0.38047652647183045,0,103.13222306110298)" x="328.5353698730469"/><path d="M496.16639476058117 592.4241401193856Q481.6427249104669 592.4241401193856 470.1582133388473 587.2809491865484Q458.7029244429825 582.1377582537111 452.1862677496717 572.9618380667174Q445.66961105636085 563.8151405554784 445.43582965032283 551.833843496028L445.43582965032283 551.833843496028L465.862480002898 551.833843496028Q466.91449633006926 562.1494480374572 474.36627864753234 569.1921128943536Q481.84728364075016 576.2347777512501 496.16639476058117 576.2347777512501L496.16639476058117 576.2347777512501Q509.8426070138074 576.2347777512501 517.7327294675919 569.396671624637Q525.6228519213763 562.5585654980239 525.6228519213763 551.833843496028L525.6228519213763 551.833843496028Q525.6228519213763 543.417712878658 520.9764464763699 538.1576312428017Q516.3592637071183 532.8975496069454 509.40426687748607 530.1506180859982Q502.4784927236087 527.4329092408058 490.6725317186868 524.276860259292L490.6725317186868 524.276860259292Q476.17808454432725 520.4779124111735 467.4405044936549 516.6789645630552Q458.7029244429825 512.9092393906915 452.50771718297403 504.81455820662376Q446.28328724721075 496.6906543468013 446.28328724721075 483.014442093575L446.28328724721075 483.014442093575Q446.28328724721075 471.0331450341246 452.39082647995497 461.7695568198665Q458.4983657126992 452.50596860560853 469.5445371479974 447.4796683757903Q480.5907085832956 442.42414547021735 494.88059702737183 442.42414547021735L494.88059702737183 442.42414547021735Q515.5118061102303 442.42414547021735 528.662010199871 452.7397500116466Q541.8122142895118 463.02613187732106 543.5071294832877 480.0921745180992L543.5071294832877 480.0921745180992L522.4668029398625 480.0921745180992Q521.4147866126913 471.67604390072916 513.6123321861711 465.24705523468265Q505.8391004354057 458.8180665686361 493.0103457790674 458.8180665686361L493.0103457790674 458.8180665686361Q480.9998260438622 458.8180665686361 473.43115302338015 465.0424965043993Q465.862480002898 471.23770376440785 465.862480002898 482.4007659027251L465.862480002898 482.4007659027251Q465.862480002898 490.37855638377374 470.3919947448854 495.43407928934676Q474.89228681111797 500.4896021949197 481.5258342074478 503.11964301284786Q488.15938160377766 505.749683830776 500.1406786632281 509.11029154257307L500.1406786632281 509.11029154257307Q514.6643485133424 513.1137981209747 523.5188192670338 517.0004139963575Q532.3440673449704 520.8870298717402 538.656165307998 529.0109337315627Q544.9682632710255 537.1056149156304 544.9682632710255 550.98638589914L544.9682632710255 550.98638589914Q544.9682632710255 561.7111079011358 539.2990641746027 571.1792548456772Q533.600642402425 580.6474017902185 522.4668029398625 586.5503822926794Q511.30374080154536 592.4241401193856 496.16639476058117 592.4241401193856L496.16639476058117 592.4241401193856Z " fill="#8f00ff" transform="matrix(0.38047652647183045,0,0,0.38047652647183045,0,103.13222306110298)"/><path d="M788.8438190252571 592.42414362032Q776.5873260585017 592.42414362032 766.8470667471729 588.2304208612757Q757.1068074358441 584.0366981022314 751.4520457801004 576.5421096876811Q745.7972841243567 569.0475212731309 745.202046055331 559.307261961802L745.202046055331 559.307261961802L763.5191448158022 559.307261961802Q764.3037768158815 567.2888633419187 771.0137332303525 572.3483869286367Q777.7507459206881 577.4079105153548 788.6544250942036 577.4079105153548L788.6544250942036 577.4079105153548Q798.7734722676396 577.4079105153548 804.6176278544369 572.9436249976624Q810.4617834412342 568.4522832041052 810.4617834412342 561.634101686175L810.4617834412342 561.634101686175Q810.4617834412342 554.6265262371912 804.2388399923296 551.2174354782262Q798.0158965434251 547.8083447192611 784.9477153007256 544.5074790637552L784.9477153007256 544.5074790637552Q773.0700101960774 541.3689510634381 765.5754217815272 538.1763105113914Q758.080833366977 534.95661368348 752.7236907457461 528.6254451311163Q747.3665481245152 522.2942765787525 747.3665481245152 511.958779198398L747.3665481245152 511.958779198398Q747.3665481245152 503.78778388722776 752.2366777801797 496.96960236929755Q757.1068074358441 490.1514208513674 766.0624347470937 486.1470920233767Q775.0180620583432 482.1698194712507 786.5169793008841 482.1698194712507L786.5169793008841 482.1698194712507Q804.2388399923296 482.1698194712507 815.142519165845 491.12544678250026Q826.0461983393602 500.08107409374986 826.8308303394396 515.6654889918759L826.8308303394396 515.6654889918759L809.1089696479941 515.6654889918759Q808.5137315789684 507.27804347378725 802.3990132335231 502.2185198870692Q796.257238612213 497.1589963003512 785.9217412318585 497.1589963003512L785.9217412318585 497.1589963003512Q776.3708758515833 497.1589963003512 770.7431704717044 501.2444939559363Q765.0884088159607 505.32999161152145 765.0884088159607 511.958779198398L765.0884088159607 511.958779198398Q765.0884088159607 517.2347529920345 768.4974995749258 520.6438437509996Q771.9065903338909 524.0529345099646 777.0743390240682 526.0821551998249Q782.2150314383805 528.1384321655498 791.3871089565486 530.6546658209764L791.3871089565486 530.6546658209764Q802.8860261990895 533.7931938212935 810.0829955791269 536.7964404422866Q817.2799649591643 539.8267433391444 822.4477136493416 545.8602928569953Q827.6154623395189 551.8938423748461 827.8048562705724 561.634101686175L827.8048562705724 561.634101686175Q827.8048562705724 570.400335066371 822.934726614908 577.4079105153548Q818.0645969592435 584.4425422402034 809.2171947514532 588.4198147923294Q800.342736267798 592.42414362032 788.8438190252571 592.42414362032L788.8438190252571 592.42414362032ZM861.8957638602233 466.5854045731246Q856.8362402735053 466.5854045731246 853.318924411081 463.0680887107003Q849.8286648245215 459.550772848276 849.8286648245215 454.491249261558L849.8286648245215 454.491249261558Q849.8286648245215 449.4317256748399 853.318924411081 445.91440981241567Q856.8362402735053 442.4241502258561 861.8957638602233 442.4241502258561L861.8957638602233 442.4241502258561Q866.7658935158878 442.4241502258561 870.1749842748528 445.91440981241567Q873.5840750338178 449.4317256748399 873.5840750338178 454.491249261558L873.5840750338178 454.491249261558Q873.5840750338178 459.550772848276 870.1749842748528 463.0680887107003Q866.7658935158878 466.5854045731246 861.8957638602233 466.5854045731246L861.8957638602233 466.5854045731246ZM852.7507426179202 483.90142112659805L870.4726033093656 483.90142112659805L870.4726033093656 590.6654856891079L852.7507426179202 590.6654856891079L852.7507426179202 483.90142112659805ZM907.106800830308 483.90142112659805L940.4130764198795 574.2964387909026L973.5299580783975 483.90142112659805L992.4152386320296 483.90142112659805L950.5321235933155 590.6654856891079L929.8881851084715 590.6654856891079L888.0050700697575 483.90142112659805L907.106800830308 483.90142112659805ZM1003.3189178055449 536.9046655457457Q1003.3189178055449 520.5356186475403 1009.9477053924214 508.1709005773257Q1016.576492979298 495.8061825071111 1028.1565790494333 488.98800098918093Q1039.7637213954335 482.1698194712507 1053.9682662244547 482.1698194712507L1053.9682662244547 482.1698194712507Q1068.010473398287 482.1698194712507 1078.3189145027768 488.20336898910165Q1088.6544118831312 494.2369185069525 1093.7139354698493 503.3819397492557L1093.7139354698493 503.3819397492557L1093.7139354698493 483.90142112659805L1111.6522463682131 483.90142112659805L1111.6522463682131 590.6654856891079L1093.7139354698493 590.6654856891079L1093.7139354698493 570.806179204343Q1088.4650179520777 580.1405943776998 1078.048351744129 586.2823689990099Q1067.604629260315 592.42414362032 1053.778872293401 592.42414362032L1053.778872293401 592.42414362032Q1039.57432746438 592.42414362032 1028.0754102218389 585.4165681713363Q1016.576492979298 578.3819364464877 1009.9477053924214 565.7195993417602Q1003.3189178055449 553.0572622370328 1003.3189178055449 536.9046655457457L1003.3189178055449 536.9046655457457ZM1093.7139354698493 537.0940594767994Q1093.7139354698493 525.0269604410976 1088.8438058141849 516.0442768539832Q1083.9736761585204 507.0886495427336 1075.694455743891 502.3267449905284Q1067.4152353292616 497.5377841624584 1057.485582086879 497.5377841624584L1057.485582086879 497.5377841624584Q1047.5559288444965 497.5377841624584 1039.3578772574615 502.2185198870692Q1031.1868819462911 506.89925561168 1026.316752290627 515.8548829229296Q1021.4466226349624 524.8105102341791 1021.4466226349624 536.9046655457457L1021.4466226349624 536.9046655457457Q1021.4466226349624 549.1611585125012 1026.316752290627 558.22501092721Q1031.1868819462911 567.2888633419187 1039.3578772574615 572.050767894124Q1047.5559288444965 576.839728722194 1057.485582086879 576.839728722194L1057.485582086879 576.839728722194Q1067.4152353292616 576.839728722194 1075.694455743891 572.050767894124Q1083.9736761585204 567.2888633419187 1088.8438058141849 558.22501092721Q1093.7139354698493 549.1611585125012 1093.7139354698493 537.0940594767994L1093.7139354698493 537.0940594767994ZM1225.3968301038421 590.6654856891079L1201.2626320324384 590.6654856891079L1159.3795169937243 543.5334531326223L1159.3795169937243 590.6654856891079L1141.6306000264142 590.6654856891079L1141.6306000264142 446.5096478814413L1159.3795169937243 446.5096478814413L1159.3795169937243 531.2499038900021L1200.478000032359 483.90142112659805L1225.2074361727882 483.90142112659805L1174.9639318918507 537.0940594767994L1225.3968301038421 590.6654856891079ZM1318.9033194925987 483.90142112659805L1336.652236459909 483.90142112659805L1336.652236459909 590.6654856891079L1318.9033194925987 590.6654856891079L1318.9033194925987 574.8916768599281Q1313.8437959058808 583.0626721710985 1304.779943491172 587.63518279225Q1295.743147352328 592.2347496892664 1284.8124119029478 592.2347496892664L1284.8124119029478 592.2347496892664Q1272.366525005139 592.2347496892664 1262.4098154868916 587.0670009990893Q1252.4801622445093 581.899252308912 1246.744231761171 571.5637549285575Q1240.981245001968 561.2553138240678 1240.981245001968 546.455530926021L1240.981245001968 546.455530926021L1240.981245001968 483.90142112659805L1258.5137117623601 483.90142112659805L1258.5137117623601 544.1016349257832Q1258.5137117623601 559.8754437549629 1266.5223694183414 568.3711143765108Q1274.5039707984583 576.839728722194 1288.3297277653721 576.839728722194L1288.3297277653721 576.839728722194Q1302.5613288702582 576.839728722194 1310.7323241814286 568.0734953419981Q1318.9033194925987 559.307261961802 1318.9033194925987 542.5594272014894L1318.9033194925987 542.5594272014894L1318.9033194925987 483.90142112659805ZM1495.0126190965968 481.9533692643323Q1507.4855622702705 481.9533692643323 1517.2258215815993 487.12111795450954Q1526.9660808929282 492.2888666446868 1532.6208425486718 502.62436402504125Q1538.2756042044155 512.932805129531 1538.2756042044155 527.7325880275778L1538.2756042044155 527.7325880275778L1538.2756042044155 590.6654856891079L1520.7431374440237 590.6654856891079L1520.7431374440237 530.2758779588692Q1520.7431374440237 514.3126751986358 1512.8427048915016 505.8170045770879Q1504.9422723389791 497.3483902314048 1491.5223595100372 497.3483902314048L1491.5223595100372 497.3483902314048Q1477.6695462672585 497.3483902314048 1469.4985509560881 506.22284871505997Q1461.3275556449178 515.0702509228503 1461.3275556449178 531.8451419590277L1461.3275556449178 531.8451419590277L1461.3275556449178 590.6654856891079L1443.795088884526 590.6654856891079L1443.795088884526 530.2758779588692Q1443.795088884526 514.3126751986358 1435.894656332004 505.8170045770879Q1427.9942237794814 497.3483902314048 1414.5743109505395 497.3483902314048L1414.5743109505395 497.3483902314048Q1400.7214977077608 497.3483902314048 1392.5505023965904 506.22284871505997Q1384.37950708542 515.0702509228503 1384.37950708542 531.8451419590277L1384.37950708542 531.8451419590277L1384.37950708542 590.6654856891079L1366.6305901181101 590.6654856891079L1366.6305901181101 483.90142112659805L1384.37950708542 483.90142112659805L1384.37950708542 499.2964420936706Q1389.6284246031917 490.9360528514467 1398.502883086847 486.4447110578895Q1407.3502852946374 481.9533692643323 1418.0645705370991 481.9533692643323L1418.0645705370991 481.9533692643323Q1431.5115396419058 481.9533692643323 1441.84703702226 488.013975058048Q1452.1554781267498 494.04752457589893 1457.215001713468 505.7358357494935L1457.215001713468 505.7358357494935Q1461.7063435070252 494.42631243800616 1472.0418408873795 488.20336898910165Q1482.3502819918692 481.9533692643323 1495.0126190965968 481.9533692643323L1495.0126190965968 481.9533692643323ZM1560.678200620472 536.9046655457457Q1560.678200620472 520.5356186475403 1567.2799319314838 508.1709005773257Q1573.9087195183604 495.8061825071111 1585.5158618643602 488.98800098918093Q1597.0959479344958 482.1698194712507 1611.327549039382 482.1698194712507L1611.327549039382 482.1698194712507Q1625.3426999373494 482.1698194712507 1635.6781973177037 488.20336898910165Q1645.9866384221934 494.2369185069525 1651.0461620089116 503.3819397492557L1651.0461620089116 503.3819397492557L1651.0461620089116 483.90142112659805L1668.9844729072754 483.90142112659805L1668.9844729072754 590.6654856891079L1651.0461620089116 590.6654856891079L1651.0461620089116 570.806179204343Q1645.79724449114 580.1405943776998 1635.3805782831912 586.2823689990099Q1624.9639120752424 592.42414362032 1611.1110988324633 592.42414362032L1611.1110988324633 592.42414362032Q1596.9065540034424 592.42414362032 1585.4076367609011 585.4165681713363Q1573.9087195183604 578.3819364464877 1567.2799319314838 565.7195993417602Q1560.678200620472 553.0572622370328 1560.678200620472 536.9046655457457L1560.678200620472 536.9046655457457ZM1651.0461620089116 537.0940594767994Q1651.0461620089116 525.0269604410976 1646.1760323532474 516.0442768539832Q1641.3059026975827 507.0886495427336 1633.0266822829533 502.3267449905284Q1624.7474618683239 497.5377841624584 1614.8178086259416 497.5377841624584L1614.8178086259416 497.5377841624584Q1604.8881553835588 497.5377841624584 1596.7171600723889 502.2185198870692Q1588.5191084853534 506.89925561168 1583.6489788296892 515.8548829229296Q1578.7788491740246 524.8105102341791 1578.7788491740246 536.9046655457457L1578.7788491740246 536.9046655457457Q1578.7788491740246 549.1611585125012 1583.6489788296892 558.22501092721Q1588.5191084853534 567.2888633419187 1596.7171600723889 572.050767894124Q1604.8881553835588 576.839728722194 1614.8178086259416 576.839728722194L1614.8178086259416 576.839728722194Q1624.7474618683239 576.839728722194 1633.0266822829533 572.050767894124Q1641.3059026975827 567.2888633419187 1646.1760323532474 558.22501092721Q1651.0461620089116 549.1611585125012 1651.0461620089116 537.0940594767994L1651.0461620089116 537.0940594767994ZM1716.7117435327866 501.2444939559363Q1721.3924792573978 492.09947271363313 1730.0504875341342 487.03994912691513Q1738.708495810871 481.9533692643323 1751.1814389845447 481.9533692643323L1751.1814389845447 481.9533692643323L1751.1814389845447 500.27046802480345L1746.500703259934 500.27046802480345Q1716.7117435327866 500.27046802480345 1716.7117435327866 532.6027176832422L1716.7117435327866 532.6027176832422L1716.7117435327866 590.6654856891079L1698.9898828413413 590.6654856891079L1698.9898828413413 483.90142112659805L1716.7117435327866 483.90142112659805L1716.7117435327866 501.2444939559363ZM1855.402213615763 590.6654856891079L1831.2409592684946 590.6654856891079L1789.357844229781 543.5334531326223L1789.357844229781 590.6654856891079L1771.6359835383353 590.6654856891079L1771.6359835383353 446.5096478814413L1789.357844229781 446.5096478814413L1789.357844229781 531.2499038900021L1830.4833835442803 483.90142112659805L1855.2128196847095 483.90142112659805L1804.942259127907 537.0940594767994L1855.402213615763 590.6654856891079ZM1865.3318668581458 536.9046655457457Q1865.3318668581458 520.5356186475403 1871.9606544450223 508.1709005773257Q1878.589442031899 495.8061825071111 1890.169528102034 488.98800098918093Q1901.7766704480343 482.1698194712507 1915.9812152770558 482.1698194712507L1915.9812152770558 482.1698194712507Q1930.023422450888 482.1698194712507 1940.3318635553776 488.20336898910165Q1950.667360935732 494.2369185069525 1955.72688452245 503.3819397492557L1955.72688452245 503.3819397492557L1955.72688452245 483.90142112659805L1973.665195420814 483.90142112659805L1973.665195420814 590.6654856891079L1955.72688452245 590.6654856891079L1955.72688452245 570.806179204343Q1950.4779670046785 580.1405943776998 1940.0613007967297 586.2823689990099Q1929.6175783129158 592.42414362032 1915.7918213460018 592.42414362032L1915.7918213460018 592.42414362032Q1901.5872765169804 592.42414362032 1890.0883592744397 585.4165681713363Q1878.589442031899 578.3819364464877 1871.9606544450223 565.7195993417602Q1865.3318668581458 553.0572622370328 1865.3318668581458 536.9046655457457L1865.3318668581458 536.9046655457457ZM1955.72688452245 537.0940594767994Q1955.72688452245 525.0269604410976 1950.8567548667854 516.0442768539832Q1945.9866252111212 507.0886495427336 1937.7074047964918 502.3267449905284Q1929.4281843818624 497.5377841624584 1919.4985311394796 497.5377841624584L1919.4985311394796 497.5377841624584Q1909.5688778970973 497.5377841624584 1901.3708263100623 502.2185198870692Q1893.199830998892 506.89925561168 1888.3297013432277 515.8548829229296Q1883.459571687563 524.8105102341791 1883.459571687563 536.9046655457457L1883.459571687563 536.9046655457457Q1883.459571687563 549.1611585125012 1888.3297013432277 558.22501092721Q1893.199830998892 567.2888633419187 1901.3708263100623 572.050767894124Q1909.5688778970973 576.839728722194 1919.4985311394796 576.839728722194L1919.4985311394796 576.839728722194Q1929.4281843818624 576.839728722194 1937.7074047964918 572.050767894124Q1945.9866252111212 567.2888633419187 1950.8567548667854 558.22501092721Q1955.72688452245 549.1611585125012 1955.72688452245 537.0940594767994L1955.72688452245 537.0940594767994ZM2053.129477635738 498.5118100935913L2025.2885697708568 498.5118100935913L2025.2885697708568 561.4447077551215Q2025.2885697708568 569.2369152041845 2028.5894354263626 572.4566120320959Q2031.8903010818688 575.6763088600075 2040.0883526689038 575.6763088600075L2040.0883526689038 575.6763088600075L2053.129477635738 575.6763088600075L2053.129477635738 590.6654856891079L2037.166274875505 590.6654856891079Q2022.366491977458 590.6654856891079 2014.9530723905025 583.8473041711777Q2007.5396528035465 577.0291226532476 2007.5396528035465 561.4447077551215L2007.5396528035465 561.4447077551215L2007.5396528035465 498.5118100935913L1993.7138958366324 498.5118100935913L1993.7138958366324 483.90142112659805L2007.5396528035465 483.90142112659805L2007.5396528035465 457.03453919284937L2025.2885697708568 457.03453919284937L2025.2885697708568 483.90142112659805L2053.129477635738 483.90142112659805L2053.129477635738 498.5118100935913ZM2067.929260533785 536.9046655457457Q2067.929260533785 520.5356186475403 2074.5580481206616 508.1709005773257Q2081.186835707538 495.8061825071111 2092.766921777674 488.98800098918093Q2104.3740641236736 482.1698194712507 2118.5786089526955 482.1698194712507L2118.5786089526955 482.1698194712507Q2132.6208161265276 482.1698194712507 2142.929257231017 488.20336898910165Q2153.2647546113712 494.2369185069525 2158.32427819809 503.3819397492557L2158.32427819809 503.3819397492557L2158.32427819809 483.90142112659805L2176.2625890964537 483.90142112659805L2176.2625890964537 590.6654856891079L2158.32427819809 590.6654856891079L2158.32427819809 570.806179204343Q2153.075360680318 580.1405943776998 2142.6586944723695 586.2823689990099Q2132.2149719885556 592.42414362032 2118.3892150216416 592.42414362032L2118.3892150216416 592.42414362032Q2104.1846701926206 592.42414362032 2092.6857529500794 585.4165681713363Q2081.186835707538 578.3819364464877 2074.5580481206616 565.7195993417602Q2067.929260533785 553.0572622370328 2067.929260533785 536.9046655457457L2067.929260533785 536.9046655457457ZM2158.32427819809 537.0940594767994Q2158.32427819809 525.0269604410976 2153.454148542425 516.0442768539832Q2148.5840188867614 507.0886495427336 2140.3047984721316 502.3267449905284Q2132.0255780575017 497.5377841624584 2122.0959248151194 497.5377841624584L2122.0959248151194 497.5377841624584Q2112.166271572737 497.5377841624584 2103.9682199857016 502.2185198870692Q2095.797224674531 506.89925561168 2090.9270950188675 515.8548829229296Q2086.056965363203 524.8105102341791 2086.056965363203 536.9046655457457L2086.056965363203 536.9046655457457Q2086.056965363203 549.1611585125012 2090.9270950188675 558.22501092721Q2095.797224674531 567.2888633419187 2103.9682199857016 572.050767894124Q2112.166271572737 576.839728722194 2122.0959248151194 576.839728722194L2122.0959248151194 576.839728722194Q2132.0255780575017 576.839728722194 2140.3047984721316 572.050767894124Q2148.5840188867614 567.2888633419187 2153.454148542425 558.22501092721Q2158.32427819809 549.1611585125012 2158.32427819809 537.0940594767994L2158.32427819809 537.0940594767994ZM2223.9898597219653 501.2444939559363Q2228.643539170711 492.09947271363313 2237.328603723312 487.03994912691513Q2245.986612000049 481.9533692643323 2258.459555173723 481.9533692643323L2258.459555173723 481.9533692643323L2258.459555173723 500.27046802480345L2253.7788194491122 500.27046802480345Q2223.9898597219653 500.27046802480345 2223.9898597219653 532.6027176832422L2223.9898597219653 532.6027176832422L2223.9898597219653 590.6654856891079L2206.2409427546545 590.6654856891079L2206.2409427546545 483.90142112659805L2223.9898597219653 483.90142112659805L2223.9898597219653 501.2444939559363ZM2288.059120969817 466.5854045731246Q2282.9995973830983 466.5854045731246 2279.5093377965395 463.0680887107003Q2275.9920219341147 459.550772848276 2275.9920219341147 454.491249261558L2275.9920219341147 454.491249261558Q2275.9920219341147 449.4317256748399 2279.5093377965395 445.91440981241567Q2282.9995973830983 442.4241502258561 2288.059120969817 442.4241502258561L2288.059120969817 442.4241502258561Q2292.9292506254806 442.4241502258561 2296.338341384446 445.91440981241567Q2299.747432143411 449.4317256748399 2299.747432143411 454.491249261558L2299.747432143411 454.491249261558Q2299.747432143411 459.550772848276 2296.338341384446 463.0680887107003Q2292.9292506254806 466.5854045731246 2288.059120969817 466.5854045731246L2288.059120969817 466.5854045731246ZM2278.9140997275135 483.90142112659805L2296.6359604189583 483.90142112659805L2296.6359604189583 590.6654856891079L2278.9140997275135 590.6654856891079L2278.9140997275135 483.90142112659805Z " fill="#ffffff" transform="matrix(0.38047652647183045,0,0,0.38047652647183045,0,103.13222306110298)"/></g></svg>